<svg xmlns="http://www.w3.org/2000/svg" version="1.1" xmlns:xlink="http://www.w3.org/1999/xlink" xmlns:svgjs="http://svgjs.dev/svgjs" width="1000" height="295" viewBox="0 0 1000 295"><g transform="matrix(1,0,0,1,-0.606058457900474,0.18230305432163618)"><svg viewBox="0 0 396 117" data-background-color="#ffffff" preserveAspectRatio="xMidYMid meet" height="295" width="1000" xmlns="http://www.w3.org/2000/svg" xmlns:xlink="http://www.w3.org/1999/xlink"><g id="tight-bounds" transform="matrix(1,0,0,1,0.23999916172556368,-0.0723032452733321)"><svg viewBox="0 0 395.52 117.14460228053456" height="117.14460228053456" width="395.52"><g><svg viewBox="0 0 617.5644593744075 182.90944320390452" height="117.14460228053456" width="395.52"><g transform="matrix(1,0,0,1,222.04445937440758,9.44524292896648)"><svg viewBox="0 0 395.52 164.01895734597156" height="164.01895734597156" width="395.52"><g><svg viewBox="0 0 395.52 164.01895734597156" height="164.01895734597156" width="395.52"><g><svg viewBox="0 0 395.52 164.01895734597156" height="164.01895734597156" width="395.52"><g transform="matrix(1,0,0,1,0,0)"><svg width="395.52" viewBox="3.700000047683716 -35 84.38999938964844 35" height="164.01895734597156" data-palette-color="#046380"><path d="M24.2 0L3.7 0 3.7-35 7.9-35 7.9-3.35 24.2-3.35 24.2 0ZM34.15 0L29.95 0 29.95-35 34.15-35 34.15 0ZM45.74 0L41.55 0 41.55-35 46.45-35 59.05-10.6 71.55-35 76.5-35 76.5 0 72.3 0 72.3-27.5 60.59-5 57.45-5 45.74-27.45 45.74 0ZM88.09 0L83.89 0 83.89-35 88.09-35 88.09 0Z" opacity="1" transform="matrix(1,0,0,1,0,0)" fill="#046380" class="undefined-text-0" data-fill-palette-color="primary" id="text-0"></path></svg></g></svg></g></svg></g></svg></g><g><svg viewBox="0 0 183.32352 182.90944320390452" height="182.90944320390452" width="183.32352"><g><svg xmlns="http://www.w3.org/2000/svg" xmlns:xlink="http://www.w3.org/1999/xlink" version="1.1" x="0" y="0" viewBox="0.49000000953674316 0.7039999961853027 90.32100677490234 90.11699676513672" enable-background="new 0 0 91 91" xml:space="preserve" height="182.90944320390452" width="183.32352" class="icon-icon-0" data-fill-palette-color="accent" id="icon-0"><g fill="#046380" data-fill-palette-color="accent"><path d="M25.449 37.106h-9.26c-1.156 0-2.094 0.938-2.094 2.094s0.938 2.094 2.094 2.094h9.26c1.156 0 2.094-0.938 2.094-2.094S26.605 37.106 25.449 37.106z" fill="#046380" data-fill-palette-color="accent"></path><path d="M25.449 50.665h-9.26c-1.156 0-2.094 0.938-2.094 2.094s0.938 2.094 2.094 2.094h9.26c1.156 0 2.094-0.938 2.094-2.094S26.605 50.665 25.449 50.665z" fill="#046380" data-fill-palette-color="accent"></path><path d="M25.449 64.226h-9.26c-1.156 0-2.094 0.938-2.094 2.094s0.938 2.094 2.094 2.094h9.26c1.156 0 2.094-0.938 2.094-2.094S26.605 64.226 25.449 64.226z" fill="#046380" data-fill-palette-color="accent"></path><path d="M46.361 37.106H37.1c-1.156 0-2.094 0.938-2.094 2.094s0.938 2.094 2.094 2.094h9.262c1.156 0 2.094-0.938 2.094-2.094S47.518 37.106 46.361 37.106z" fill="#046380" data-fill-palette-color="accent"></path><path d="M46.361 50.665H37.1c-1.156 0-2.094 0.938-2.094 2.094s0.938 2.094 2.094 2.094h9.262c1.156 0 2.094-0.938 2.094-2.094S47.518 50.665 46.361 50.665z" fill="#046380" data-fill-palette-color="accent"></path><path d="M46.361 64.226H37.1c-1.156 0-2.094 0.938-2.094 2.094s0.938 2.094 2.094 2.094h9.262c1.156 0 2.094-0.938 2.094-2.094S47.518 64.226 46.361 64.226z" fill="#046380" data-fill-palette-color="accent"></path><path d="M58.008 41.294h9.262c1.156 0 2.094-0.938 2.094-2.094s-0.938-2.094-2.094-2.094h-9.262c-1.156 0-2.094 0.938-2.094 2.094S56.852 41.294 58.008 41.294z" fill="#046380" data-fill-palette-color="accent"></path><path d="M58.008 54.853h9.262c1.156 0 2.094-0.938 2.094-2.094s-0.938-2.094-2.094-2.094h-9.262c-1.156 0-2.094 0.938-2.094 2.094S56.852 54.853 58.008 54.853z" fill="#046380" data-fill-palette-color="accent"></path><path d="M87.936 67.124c-1.131 0.24-1.855 1.352-1.615 2.482 0.201 0.955 0.303 1.941 0.303 2.928 0 7.775-6.324 14.1-14.098 14.1s-14.098-6.324-14.098-14.1c0-7.773 6.324-14.098 14.098-14.098 3.492 0 6.783 1.275 9.367 3.584L72.52 72.046l-3.725-3.957c-0.793-0.844-2.117-0.883-2.959-0.09-0.842 0.791-0.883 2.117-0.09 2.959L71 76.542c0.396 0.42 0.947 0.658 1.525 0.658 0 0 0.002 0 0.004 0 0.578 0 1.131-0.24 1.525-0.664l16.193-17.322c0.789-0.844 0.744-2.17-0.102-2.959-0.844-0.791-2.17-0.746-2.959 0.1l-2.438 2.609c-0.57-0.514-1.16-0.994-1.779-1.426V24.505c0-0.01-0.004-0.02-0.004-0.029V8.728c0-1.156-0.938-2.094-2.094-2.094H67.215V2.798c0-1.156-0.938-2.094-2.094-2.094s-2.094 0.938-2.094 2.094v3.836H43.824V2.798c0-1.156-0.938-2.094-2.094-2.094s-2.094 0.938-2.094 2.094v3.836H20.432V2.798c0-1.156-0.938-2.094-2.094-2.094s-2.094 0.938-2.094 2.094v3.836H2.584c-1.156 0-2.094 0.938-2.094 2.094v15.773c0 0 0 0 0 0.002 0 0 0 0 0 0.002v59.861c0 1.156 0.938 2.094 2.094 2.094h57.971c0.045 0 0.088-0.012 0.133-0.014 3.193 2.721 7.324 4.375 11.838 4.375 10.084 0 18.285-8.203 18.285-18.287 0-1.277-0.133-2.553-0.395-3.793C90.178 67.61 89.066 66.89 87.936 67.124zM4.678 10.821h11.566v3.727c0 1.156 0.938 2.094 2.094 2.094s2.094-0.938 2.094-2.094v-3.727h19.205v3.727c0 1.156 0.938 2.094 2.094 2.094s2.094-0.938 2.094-2.094v-3.727h19.203v3.727c0 1.156 0.938 2.094 2.094 2.094s2.094-0.938 2.094-2.094v-3.727h11.564v11.586H4.678V10.821zM4.678 26.599h74.105v28.766c-1.982-0.721-4.086-1.115-6.258-1.115-10.082 0-18.285 8.203-18.285 18.285 0 3.582 1.049 6.914 2.836 9.738H4.678V26.599z" fill="#046380" data-fill-palette-color="accent"></path></g></svg></g></svg></g></svg></g><defs></defs></svg><rect width="395.52" height="117.14460228053456" fill="none" stroke="none" visibility="hidden"></rect></g></svg></g></svg>